# Blender 4.4.0
# www.blender.org
mtllib Simple barrel.mtl
o Cylinder
v 0.000000 -1.620777 -1.000000
v 0.000000 1.620777 -1.000000
v 0.707107 -1.620777 -0.707107
v 0.707107 1.620777 -0.707107
v 1.000000 -1.620777 0.000000
v 1.000000 1.620777 0.000000
v 0.707107 -1.620777 0.707107
v 0.707107 1.620777 0.707107
v 0.000000 -1.620777 1.000000
v 0.000000 1.620777 1.000000
v -0.707107 -1.620777 0.707107
v -0.707107 1.620777 0.707107
v -1.000000 -1.620777 0.000000
v -1.000000 1.620777 0.000000
v -0.707107 -1.620777 -0.707107
v -0.707107 1.620777 -0.707107
v 0.000000 -0.549219 -1.408757
v 0.000000 0.549219 -1.408757
v 0.996142 0.549219 -0.996142
v 0.996142 -0.549219 -0.996142
v 1.408757 0.549219 -0.000000
v 1.408757 -0.549219 -0.000000
v 0.996142 0.549219 0.996142
v 0.996142 -0.549219 0.996142
v 0.000000 0.549219 1.408757
v 0.000000 -0.549219 1.408757
v -0.996142 0.549219 0.996142
v -0.996142 -0.549219 0.996142
v -1.408757 0.549219 -0.000000
v -1.408757 -0.549219 -0.000000
v -0.996142 0.549219 -0.996142
v -0.996142 -0.549219 -0.996142
v 0.000000 1.620777 0.000000
v 0.000000 -1.620777 0.000000
vn 0.3609 0.3324 -0.8714
vn 0.8714 0.3324 -0.3609
vn 0.8714 0.3324 0.3609
vn 0.3609 0.3324 0.8714
vn -0.3609 0.3324 0.8714
vn -0.8714 0.3324 0.3609
vn -0.0000 1.0000 -0.0000
vn -0.8714 0.3324 -0.3609
vn -0.3609 0.3324 -0.8714
vn -0.0000 -1.0000 -0.0000
vn -0.3609 -0.3324 -0.8714
vn -0.3827 -0.0000 -0.9239
vn -0.8714 -0.3324 -0.3609
vn -0.9239 -0.0000 -0.3827
vn -0.8714 -0.3324 0.3609
vn -0.9239 -0.0000 0.3827
vn -0.3609 -0.3324 0.8714
vn -0.3827 -0.0000 0.9239
vn 0.3609 -0.3324 0.8714
vn 0.3827 -0.0000 0.9239
vn 0.8714 -0.3324 0.3609
vn 0.9239 -0.0000 0.3827
vn 0.8714 -0.3324 -0.3609
vn 0.9239 -0.0000 -0.3827
vn 0.3609 -0.3324 -0.8714
vn 0.3827 -0.0000 -0.9239
vt 1.000000 0.833333
vt 1.000000 1.000000
vt 0.875000 1.000000
vt 0.875000 0.833333
vt 0.750000 1.000000
vt 0.750000 0.833333
vt 0.625000 1.000000
vt 0.625000 0.833333
vt 0.500000 1.000000
vt 0.500000 0.833333
vt 0.375000 1.000000
vt 0.375000 0.833333
vt 0.250000 1.000000
vt 0.250000 0.833333
vt 0.250000 0.250000
vt 0.010000 0.250000
vt 0.080294 0.080294
vt 0.125000 1.000000
vt 0.125000 0.833333
vt 0.000000 1.000000
vt 0.000000 0.833333
vt 0.750000 0.250000
vt 0.990000 0.250000
vt 0.919706 0.080294
vt 0.125000 0.500000
vt 0.125000 0.666667
vt 0.000000 0.666667
vt 0.000000 0.500000
vt 0.250000 0.500000
vt 0.250000 0.666667
vt 0.375000 0.500000
vt 0.375000 0.666667
vt 0.500000 0.500000
vt 0.500000 0.666667
vt 0.625000 0.500000
vt 0.625000 0.666667
vt 0.750000 0.500000
vt 0.750000 0.666667
vt 0.875000 0.500000
vt 0.875000 0.666667
vt 1.000000 0.500000
vt 1.000000 0.666667
vt 0.080294 0.419706
vt 0.250000 0.010000
vt 0.419706 0.080294
vt 0.419706 0.419706
vt 0.250000 0.490000
vt 0.919706 0.419706
vt 0.750000 0.010000
vt 0.580294 0.080294
vt 0.580294 0.419706
vt 0.750000 0.490000
vt 0.490000 0.250000
vt 0.510000 0.250000
s 0
f 18/1/1 2/2/1 4/3/1 19/4/1
f 19/4/2 4/3/2 6/5/2 21/6/2
f 21/6/3 6/5/3 8/7/3 23/8/3
f 23/8/4 8/7/4 10/9/4 25/10/4
f 25/10/5 10/9/5 12/11/5 27/12/5
f 27/12/6 12/11/6 14/13/6 29/14/6
f 33/15/7 14/16/7 12/17/7
f 29/14/8 14/13/8 16/18/8 31/19/8
f 31/19/9 16/18/9 2/20/9 18/21/9
f 34/22/10 5/23/10 7/24/10
f 15/25/11 32/26/11 17/27/11 1/28/11
f 32/26/12 31/19/12 18/21/12 17/27/12
f 13/29/13 30/30/13 32/26/13 15/25/13
f 30/30/14 29/14/14 31/19/14 32/26/14
f 11/31/15 28/32/15 30/30/15 13/29/15
f 28/32/16 27/12/16 29/14/16 30/30/16
f 9/33/17 26/34/17 28/32/17 11/31/17
f 26/34/18 25/10/18 27/12/18 28/32/18
f 7/35/19 24/36/19 26/34/19 9/33/19
f 24/36/20 23/8/20 25/10/20 26/34/20
f 5/37/21 22/38/21 24/36/21 7/35/21
f 22/38/22 21/6/22 23/8/22 24/36/22
f 3/39/23 20/40/23 22/38/23 5/37/23
f 20/40/24 19/4/24 21/6/24 22/38/24
f 1/41/25 17/42/25 20/40/25 3/39/25
f 17/42/26 18/1/26 19/4/26 20/40/26
f 16/43/7 14/16/7 33/15/7
f 33/15/7 10/44/7 8/45/7
f 4/46/7 2/47/7 33/15/7
f 3/48/10 5/23/10 34/22/10
f 34/22/10 9/49/10 11/50/10
f 15/51/10 1/52/10 34/22/10
f 2/47/7 16/43/7 33/15/7
f 6/53/7 33/15/7 8/45/7
f 10/44/7 33/15/7 12/17/7
f 6/53/7 4/46/7 33/15/7
f 13/54/10 15/51/10 34/22/10
f 9/49/10 34/22/10 7/24/10
f 13/54/10 34/22/10 11/50/10
f 1/52/10 3/48/10 34/22/10
