# Blender 4.4.0
# www.blender.org
mtllib simple eyepatch.mtl
o Torus
v 0.418268 0.146946 0.000000
v 0.418268 -0.146946 0.000000
v 0.463431 0.000000 -0.883884
v 0.399387 0.237764 -0.761734
v 0.295760 0.146946 -0.564092
v 0.295760 -0.146946 -0.564092
v 0.399387 -0.237764 -0.761734
v -0.000000 0.000000 -1.250000
v -0.000000 0.237764 -1.077254
v -0.000000 0.146946 -0.797746
v -0.000000 -0.146946 -0.797746
v -0.000000 -0.237764 -1.077254
v -0.463432 0.000000 -0.883883
v -0.399387 0.237764 -0.761734
v -0.295760 0.146946 -0.564091
v -0.295760 -0.146946 -0.564091
v -0.399387 -0.237764 -0.761734
v -0.655391 0.000000 -0.000000
v -0.564818 0.237764 -0.000000
v -0.418268 0.146946 -0.000000
v -0.418268 -0.146946 -0.000000
v -0.564818 -0.237764 -0.000000
v -0.463432 0.000000 0.883883
v -0.399387 0.237764 0.761734
v -0.295760 0.146946 0.564091
v -0.295760 -0.146946 0.564091
v -0.399387 -0.237764 0.761734
v -0.000000 0.000000 1.250000
v -0.000000 0.237764 1.077254
v -0.000000 0.146946 0.797746
v -0.000000 -0.146946 0.797746
v -0.000000 -0.237764 1.077254
v 0.463431 0.000000 0.883884
v 0.399386 0.237764 0.761734
v 0.295760 0.146946 0.564092
v 0.295760 -0.146946 0.564092
v 0.399386 -0.237764 0.761734
v 0.516402 -0.581109 0.581109
v 0.516402 0.581109 0.581109
v 0.516402 -0.581109 -0.581109
v 0.516402 0.581109 -0.581109
v 0.745839 -0.581109 0.581109
v 0.745839 0.581109 0.581109
v 0.745839 -0.581109 -0.581109
v 0.745839 0.581109 -0.581109
v 0.529187 0.000000 -0.581109
v 0.516402 0.033564 -0.581109
v 0.516402 0.237764 -0.222935
v 0.516402 0.207760 0.000000
v 0.516402 -0.237764 -0.222935
v 0.516402 -0.207760 0.000000
v 0.516402 -0.033564 -0.581109
v 0.529187 0.000000 0.581109
v 0.516402 0.033563 0.581109
v 0.516402 0.237764 0.222935
v 0.516402 -0.237764 0.222935
v 0.516402 -0.033563 0.581109
vn -0.9772 -0.0000 0.2122
vn 0.5385 0.4953 -0.6817
vn -0.2372 0.9239 0.3002
vn -0.6199 -0.0000 0.7847
vn -0.2372 -0.9239 0.3002
vn 0.5385 -0.4953 -0.6817
vn -0.5385 0.4953 -0.6817
vn 0.2372 0.9239 0.3002
vn 0.6199 -0.0000 0.7847
vn 0.2372 -0.9239 0.3002
vn -0.5385 -0.4953 -0.6817
vn -0.9158 0.3489 -0.1989
vn 0.5233 0.8445 0.1137
vn 0.9772 -0.0000 0.2122
vn 0.5233 -0.8445 0.1137
vn -0.9158 -0.3489 -0.1989
vn -0.9158 0.3489 0.1989
vn 0.5233 0.8445 -0.1137
vn 0.9772 -0.0000 -0.2122
vn 0.5233 -0.8445 -0.1137
vn -0.9158 -0.3489 0.1989
vn -0.5385 0.4953 0.6817
vn 0.2372 0.9239 -0.3002
vn 0.6199 -0.0000 -0.7847
vn 0.2372 -0.9239 -0.3002
vn -0.5385 -0.4953 0.6817
vn 0.5385 0.4953 0.6817
vn -0.2372 0.9239 -0.3002
vn -0.6199 -0.0000 -0.7847
vn -0.2372 -0.9239 -0.3002
vn 0.5385 -0.4953 0.6817
vn -0.9772 -0.0000 -0.2122
vn 1.0000 -0.0000 -0.0000
vn -0.0000 -1.0000 -0.0000
vn -0.0000 1.0000 -0.0000
vn 0.9158 0.3489 -0.1989
vn -0.5233 0.8445 0.1137
vn -0.5233 -0.8445 0.1137
vn 0.9158 -0.3489 -0.1989
vn 0.9158 0.3489 0.1989
vn -0.5233 0.8445 -0.1137
vn -0.5233 -0.8445 -0.1137
vn 0.9158 -0.3489 0.1989
vn -1.0000 -0.0000 -0.0000
vn -0.0000 -0.0000 -1.0000
vn -0.0000 -0.0000 1.0000
vt 0.500000 0.000000
vt 0.625000 0.000000
vt 0.625000 0.200000
vt 0.500000 0.200000
vt 0.625000 0.600000
vt 0.750000 0.600000
vt 0.750000 0.800000
vt 0.625000 0.800000
vt 0.750000 1.000000
vt 0.625000 1.000000
vt 0.750000 0.000000
vt 0.750000 0.200000
vt 0.750000 0.400000
vt 0.625000 0.400000
vt 0.875000 0.600000
vt 0.875000 0.800000
vt 0.875000 1.000000
vt 0.875000 0.000000
vt 0.875000 0.200000
vt 0.875000 0.400000
vt 1.000000 0.600000
vt 1.000000 0.800000
vt 1.000000 1.000000
vt 1.000000 0.000000
vt 1.000000 0.200000
vt 1.000000 0.400000
vt 0.000000 0.600000
vt 0.125000 0.600000
vt 0.125000 0.800000
vt 0.000000 0.800000
vt 0.125000 1.000000
vt 0.000000 1.000000
vt 0.000000 0.000000
vt 0.125000 0.000000
vt 0.125000 0.200000
vt 0.000000 0.200000
vt 0.125000 0.400000
vt 0.000000 0.400000
vt 0.250000 0.600000
vt 0.250000 0.800000
vt 0.250000 1.000000
vt 0.250000 0.000000
vt 0.250000 0.200000
vt 0.250000 0.400000
vt 0.375000 0.600000
vt 0.375000 0.800000
vt 0.375000 1.000000
vt 0.375000 0.000000
vt 0.375000 0.200000
vt 0.375000 0.400000
vt 0.375000 0.500000
vt 0.625000 0.500000
vt 0.625000 0.750000
vt 0.375000 0.750000
vt 0.125000 0.500000
vt 0.125000 0.750000
vt 0.875000 0.500000
vt 0.875000 0.750000
vt 0.536584 0.800000
vt 0.583912 0.628233
vt 0.582181 0.600000
vt 0.500000 1.000000
vt 0.500000 0.866075
vt 0.536584 0.800000
vt 0.500000 0.333925
vt 0.536583 0.400000
vt 0.583912 0.571767
vt 0.463417 0.800000
vt 0.417819 0.600000
vt 0.416088 0.628233
vt 0.500000 0.866075
vt 0.500000 0.333925
vt 0.463417 0.400000
vt 0.416088 0.571767
vt 0.507220 0.000000
vt 0.625000 0.250000
vt 0.507220 0.250000
vt 0.551144 0.172955
vt 0.544690 0.125000
vt 0.551144 0.077045
vt 0.375000 0.250000
vt 0.492780 0.000000
vt 0.448855 0.077045
vt 0.455310 0.125000
vt 0.448855 0.172955
vt 0.492780 0.250000
vt 0.492780 0.250000
vt 0.500000 0.263931
vt 0.492780 1.000000
vt 0.507220 1.000000
vt 0.500000 0.986069
s 0
f 1/1/1 5/2/1 6/3/1 2/4/1
f 3/5/2 8/6/2 9/7/2 4/8/2
f 4/8/3 9/7/3 10/9/3 5/10/3
f 5/2/4 10/11/4 11/12/4 6/3/4
f 6/3/5 11/12/5 12/13/5 7/14/5
f 7/14/6 12/13/6 8/6/6 3/5/6
f 8/6/7 13/15/7 14/16/7 9/7/7
f 9/7/8 14/16/8 15/17/8 10/9/8
f 10/11/9 15/18/9 16/19/9 11/12/9
f 11/12/10 16/19/10 17/20/10 12/13/10
f 12/13/11 17/20/11 13/15/11 8/6/11
f 13/15/12 18/21/12 19/22/12 14/16/12
f 14/16/13 19/22/13 20/23/13 15/17/13
f 15/18/14 20/24/14 21/25/14 16/19/14
f 16/19/15 21/25/15 22/26/15 17/20/15
f 17/20/16 22/26/16 18/21/16 13/15/16
f 18/27/17 23/28/17 24/29/17 19/30/17
f 19/30/18 24/29/18 25/31/18 20/32/18
f 20/33/19 25/34/19 26/35/19 21/36/19
f 21/36/20 26/35/20 27/37/20 22/38/20
f 22/38/21 27/37/21 23/28/21 18/27/21
f 23/28/22 28/39/22 29/40/22 24/29/22
f 24/29/23 29/40/23 30/41/23 25/31/23
f 25/34/24 30/42/24 31/43/24 26/35/24
f 26/35/25 31/43/25 32/44/25 27/37/25
f 27/37/26 32/44/26 28/39/26 23/28/26
f 28/39/27 33/45/27 34/46/27 29/40/27
f 29/40/28 34/46/28 35/47/28 30/41/28
f 30/42/29 35/48/29 36/49/29 31/43/29
f 31/43/30 36/49/30 37/50/30 32/44/30
f 32/44/31 37/50/31 33/45/31 28/39/31
f 35/48/32 1/1/32 2/4/32 36/49/32
f 44/51/33 45/52/33 43/53/33 42/54/33
f 40/55/34 44/51/34 42/54/34 38/56/34
f 45/52/35 41/57/35 39/58/35 43/53/35
f 3/5/36 4/8/36 48/59/36 47/60/36 46/61/36
f 4/8/37 5/10/37 1/62/37 49/63/37 48/64/37
f 51/65/38 2/4/38 6/3/38 7/14/38 50/66/38
f 7/14/39 3/5/39 46/61/39 52/67/39 50/66/39
f 55/68/40 34/46/40 33/45/40 53/69/40 54/70/40
f 55/68/41 49/71/41 1/62/41 35/47/41 34/46/41
f 36/49/42 2/4/42 51/72/42 56/73/42 37/50/42
f 33/45/43 37/50/43 56/73/43 57/74/43 53/69/43
f 54/75/44 39/2/44 41/76/44 47/77/44 48/78/44 49/79/44 55/80/44
f 40/81/44 38/48/44 57/82/44 56/83/44 51/84/44 50/85/44 52/86/44
f 45/52/45 44/51/45 40/81/45 52/87/45 46/88/45 47/77/45 41/76/45
f 57/89/46 38/47/46 42/54/46 43/53/46 39/10/46 54/90/46 53/91/46
